<?xml version="1.0" encoding="UTF-8"?>
<svg id="Layer_1" xmlns="http://www.w3.org/2000/svg" xmlns:xlink="http://www.w3.org/1999/xlink" version="1.1" viewBox="0 0 202 20">
  <!-- Generator: Adobe Illustrator 29.5.1, SVG Export Plug-In . SVG Version: 2.1.0 Build 141)  -->
  <defs>
    <style>
      .st0 {
        fill: none;
      }

      .st1 {
        fill: #c63527;
      }

      .st2 {
        clip-path: url(#clippath);
      }
    </style>
    <clipPath id="clippath">
      <rect class="st0" y=".7" width="177.5" height="19.3"/>
    </clipPath>
  </defs>
  <g id="Group_3">
    <rect id="Rectangle_1" class="st1" x="75.7" y=".7" width="14.7" height="3.9"/>
    <rect id="Rectangle_2" class="st1" x="75.7" y="16.1" width="14.7" height="3.9"/>
    <rect id="Rectangle_3" class="st1" x="75.7" y="8.7" width="11" height="3.9"/>
    <rect id="Rectangle_4" class="st1" x="127.7" y=".7" width="14.7" height="3.9"/>
    <rect id="Rectangle_5" class="st1" x="127.7" y="16.1" width="14.7" height="3.9"/>
    <rect id="Rectangle_6" class="st1" x="127.7" y="8.7" width="11" height="3.9"/>
    <path id="Path_1" class="st1" d="M22.8.7l-3.2,13.8L16.2.7h-5.3l-3.4,13.8L4.3.7H0l4.8,19.3h5.5l3.3-14.7,3.2,14.7h5.5L27.1.7h-4.3Z"/>
    <path id="Path_2" class="st1" d="M46.3.7v19.3h12v-3.9h-7.7V.7h-4.4.1Z"/>
    <path id="Path_3" class="st1" d="M58,.7v3.9h5.2v15.5h4.3V4.5h5.2V.7s-14.7,0-14.7,0Z"/>
    <path id="Path_4" class="st1" d="M112.7.7v19.3h4.3v-7.5h7.3v-3.9h-7.3v-4.1h7.9V.7h-12.3,0Z"/>
    <path id="Path_5" class="st1" d="M173,.7l-3.6,9-3.6-9h-4.6l6,13.8v5.6h4.3v-5.6l6-13.8h-4.6.1Z"/>
    <path id="Path_6" class="st1" d="M35,5l2,7.6h-3.9s1.9-7.6,1.9-7.6ZM32.1.7l-5.2,19.3h4.3l1-3.8h5.7l1,3.8h4.2L37.9.7h-5.8Z"/>
    <g id="Group_2">
      <g class="st2">
        <g id="Group_1">
          <path id="Path_7" class="st1" d="M160,5.6c-1.3-5.3-7.3-4.9-7.3-4.9h-7.5v19.3h7.5s6.1.2,7.2-4.7c.6-3.2.7-6.5.1-9.7M155.5,14.3h0v.2s-.2,1.5-2.9,1.6h-2.9V4.6h2.9c.7,0,2.6.3,2.9,1.8h0c.3,1.3.4,2.6.4,3.9s-.1,2.6-.4,3.9"/>
          <path id="Path_8" class="st1" d="M101.8,10.2h-.2.2"/>
          <path id="Path_9" class="st1" d="M105.2,13.4c3.7-1.6,3.5-6.1,3.5-6.1,0-3-1.2-4.7-2.6-5.6h0s-.2-.1-.3-.2c0,0-.2-.1-.3-.2,0,0-.2,0-.3-.1h0c-1-.4-2-.6-3-.6h-8.6v19.3h4.3v-6h2.6l4.3,6h5.2l-4.7-6.6h0ZM101.8,10.2h-4v-5.7h3.9c1.4,0,2.6,1.1,2.6,2.5v.4c0,1.5-1.1,2.7-2.5,2.8h0"/>
          <path id="Path_10" class="st1" d="M101.5,10.2h0,0Z"/>
        </g>
      </g>
    </g>
  </g>
  <path class="st1" d="M192.2,20l.2-4.3c0-.3-.2-.5-.4-.5h-.1l-4.3.7.6-1.6v-.4l-4.7-3.8,1.1-.5c.1,0,.2-.2.2-.4l-.9-2.8,2.7.6c.2,0,.3,0,.4-.2l.5-1.2,2.1,2.3c.1,0,.3,0,.5,0,0,0,.1-.2,0-.3l-1-5.2,1.6.9c.2,0,.4,0,.4,0h0l1.6-3.2,1.6,3.2c0,.2.3.2.4,0h0l1.6-.9-1,5.2c0,.2,0,.3.3.4h.3l2.1-2.3.5,1.2c0,0,.2.2.4.2l2.7-.6-.9,2.8c0,.2,0,.3.2.4l1.1.5-4.7,3.8c-.1,0-.1.2,0,.4l.6,1.6-4.3-.7c-.3,0-.5.1-.5.4h0c0,.1.2,4.4.2,4.4h-1.1Z"/>
</svg>